<?xml version="1.0" encoding="UTF-8" standalone="no"?>
<!-- Created with Inkscape (http://www.inkscape.org/) -->

<svg
   xmlns:dc="http://purl.org/dc/elements/1.1/"
   xmlns:cc="http://creativecommons.org/ns#"
   xmlns:rdf="http://www.w3.org/1999/02/22-rdf-syntax-ns#"
   xmlns:svg="http://www.w3.org/2000/svg"
   xmlns="http://www.w3.org/2000/svg"
   xmlns:sodipodi="http://sodipodi.sourceforge.net/DTD/sodipodi-0.dtd"
   xmlns:inkscape="http://www.inkscape.org/namespaces/inkscape"
   width="210mm"
   height="297mm"
   viewBox="0 0 210 297"
   version="1.1"
   id="svg44"
   inkscape:version="0.92.2 2405546, 2018-03-11"
   sodipodi:docname="a.svg">
  <defs
     id="defs38" />
  <sodipodi:namedview
     id="base"
     pagecolor="#ffffff"
     bordercolor="#666666"
     borderopacity="1.0"
     inkscape:pageopacity="0.0"
     inkscape:pageshadow="2"
     inkscape:zoom="1.3833896"
     inkscape:cx="350.86429"
     inkscape:cy="35.54217"
     inkscape:document-units="mm"
     inkscape:current-layer="layer1"
     showgrid="false" />
  <metadata
     id="metadata41">
    <rdf:RDF>
      <cc:Work
         rdf:about="">
        <dc:format>image/svg+xml</dc:format>
        <dc:type
           rdf:resource="http://purl.org/dc/dcmitype/StillImage" />
        <dc:title></dc:title>
      </cc:Work>
    </rdf:RDF>
  </metadata>
  <g
     inkscape:label="Layer 1"
     inkscape:groupmode="layer"
     id="layer1">
    <g
       aria-label="A"
       style="font-style:normal;font-variant:normal;font-weight:normal;font-stretch:normal;font-size:10.58333302px;line-height:1.25;font-family:'DejaVu Sans';-inkscape-font-specification:'DejaVu Sans';letter-spacing:0px;word-spacing:0px;fill:#000000;fill-opacity:1;stroke:none;stroke-width:0.26458332"
       id="text4340">
      <path
         d="M -0.14618229,296.65075 Q 0.11840104,296.65075 0.27715103,296.53433 0.43590103,296.40733 0.53115103,296.21683 0.63698436,296.01575 0.77456769,295.62417 L 0.88040102,295.32783 3.0605676,289.39058 H 3.3145676 L 5.6746509,295.4125 Q 5.7910675,295.69825 5.8757342,296.03692 5.9604009,296.365 5.9498175,296.57667 L 6.6694842,296.53433 V 297 H 4.2459009 V 296.65075 Q 4.8703176,296.64017 4.8703176,296.14275 4.8703176,295.94167 4.7644842,295.64533 L 4.3940676,294.6505 1.642401,294.714 Q 1.483651,295.14792 1.2719843,295.84642 1.166151,296.19567 1.007401,296.57667 L 1.832901,296.53433 V 297 H -0.14618229 Z M 4.2459009,294.25892 3.4944843,292.2375 3.0182343,290.93575 H 2.9970676 L 2.5525676,292.13167 1.9810676,293.74033 1.801151,294.25892 Z"
         style="font-style:normal;font-variant:normal;font-weight:normal;font-stretch:normal;font-family:lora;-inkscape-font-specification:lora;stroke-width:0.26458332"
         id="path4384"
         inkscape:connector-curvature="0" />
    </g>
  </g>
</svg>
